<?xml version="1.0" encoding="utf-8"?>
<!-- Generator: Adobe Illustrator 22.0.1, SVG Export Plug-In . SVG Version: 6.00 Build 0)  -->
<svg version="1.2" baseProfile="tiny" id="Calque_1"
	 xmlns="http://www.w3.org/2000/svg" xmlns:xlink="http://www.w3.org/1999/xlink" x="0px" y="0px" width="177px" height="62px" viewBox="0 0 108.4 47.9"
	 xml:space="preserve">
<g>
	<polygon fill="none" points="40.6,39.3 43.7,39.3 42.2,35.5 	"/>
	<path fill="none" d="M77.1,35.1h-2v3.4h2c1.3,0,2-0.6,2-1.7C79.1,35.7,78.4,35.1,77.1,35.1z"/>
	<path fill="none" d="M61.8,13.4c0,3.9,3.1,7,7,7c3.9,0,7-3.1,7-7s-3.1-7-7-7C65,6.4,61.8,9.5,61.8,13.4z"/>
	<polygon fill="#010202" points="36,42.7 36,33.6 34,33.6 31,39.5 28,33.6 26.1,33.6 26.1,42.7 27.6,42.7 27.6,36.2 30.5,41.8 
		31.6,41.8 34.4,36.2 34.4,42.7 	"/>
	<path fill="#010202" d="M41.3,33.6l-4,9.1h1.8l0.8-1.9h4.4l0.8,1.9H47l-3.9-9.1H41.3z M40.6,39.3l1.6-3.8l1.6,3.8H40.6z"/>
	<path fill="#010202" d="M51.3,41.2c-1,0-2.2-0.5-3.1-1.4l-0.7,1.5c1,0.9,2.4,1.4,3.8,1.4c2,0,3.5-1,3.5-2.7c0-3.3-4.9-2.3-4.9-4.2
		c0-0.6,0.5-0.9,1.3-0.9c0.7,0,1.7,0.3,2.7,0.9l0.7-1.5c-0.9-0.6-2.1-1-3.3-1c-2,0-3.4,1-3.4,2.6c0,3.3,4.9,2.2,4.9,4.1
		C52.9,40.8,52.3,41.2,51.3,41.2z"/>
	<polygon fill="#010202" points="60.2,42.7 60.2,35.2 63,35.2 63,33.6 55.6,33.6 55.6,35.2 58.5,35.2 58.5,42.7 	"/>
	<polygon fill="#010202" points="89.7,41.2 84.6,41.2 84.6,38.9 89,38.9 89,37.4 84.6,37.4 84.6,35.1 89.5,35.1 89.5,33.6 
		82.9,33.6 82.9,42.7 89.7,42.7 	"/>
	<polygon fill="#010202" points="64.5,42.7 71.3,42.7 71.3,41.2 66.2,41.2 66.2,38.9 70.6,38.9 70.6,37.4 66.2,37.4 66.2,35.1 
		71.1,35.1 71.1,33.6 64.5,33.6 	"/>
	<polygon fill="#010202" points="67.3,30.9 65.7,31.6 67.3,32.9 68.7,32.8 	"/>
	<path fill="#010202" d="M80.7,36.7c0-2-1.3-3.1-3.7-3.1h-3.8v9.1H75V40h2c0.1,0,0.2,0,0.3,0l1.6,2.7h2l-2-3
		C80.1,39.2,80.7,38.2,80.7,36.7z M77.1,38.5h-2v-3.4h2c1.3,0,2,0.5,2,1.7C79.1,37.9,78.4,38.5,77.1,38.5z"/>
	<path fill="#010202" d="M94.7,41.2c-1,0-2.2-0.5-3.1-1.4l-0.7,1.5c1,0.9,2.4,1.4,3.8,1.4c2,0,3.5-1,3.5-2.7c0-3.3-4.9-2.3-4.9-4.2
		c0-0.6,0.5-0.9,1.3-0.9c0.7,0,1.7,0.3,2.7,0.9l0.7-1.5c-0.9-0.6-2.1-1-3.3-1c-2,0-3.4,1-3.4,2.6c0,3.3,4.9,2.2,4.9,4.1
		C96.3,40.8,95.7,41.2,94.7,41.2z"/>
	<path fill="#00AFA0" d="M55.5,13.4c0,7.4,6,13.4,13.4,13.4s13.4-6,13.4-13.4C82.2,6,76.2,0,68.8,0h0C61.4,0,55.5,6,55.5,13.4z
		 M75.8,13.4c0,3.9-3.1,7-7,7c-3.9,0-7-3.1-7-7s3.1-7,7-7C72.7,6.4,75.8,9.5,75.8,13.4z"/>
	<path fill="#00AFA0" d="M52.8,13.4C52.8,6,46.8,0,39.4,0C32,0,26,6,26,13.4v12.7h6.4l0-12.7c0-3.9,3.1-7,7-7c3.9,0,7,3.1,7,7v12.7
		h6.4L52.8,13.4z"/>
	<polygon fill="#00AFA0" points="20.3,0.6 3.5,42.6 10.4,42.6 27.2,0.6 	"/>
	<path fill="#00AFA0" d="M11.6,13.8c0-0.9-0.2-1.7-0.5-2.4L6.8,0.6H0l7.6,19.1C10,18.8,11.6,16.5,11.6,13.8z"/>
	<polygon fill="#00AFA0" points="91.2,26.1 98.1,26.1 108.3,0.6 101.4,0.6 	"/>
	<path fill="#00AFA0" d="M92.2,11.4L87.9,0.6h-6.8l7.6,19.1c2.4-0.9,4-3.2,4-5.9C92.7,13,92.5,12.2,92.2,11.4z"/>
</g>
</svg>
